<?xml version="1.0" encoding="utf-8"?>
<!-- Generator: Adobe Illustrator 16.0.0, SVG Export Plug-In . SVG Version: 6.00 Build 0)  -->
<!DOCTYPE svg PUBLIC "-//W3C//DTD SVG 1.1//EN" "http://www.w3.org/Graphics/SVG/1.1/DTD/svg11.dtd">
<svg version="1.1" id="Layer_1" xmlns="http://www.w3.org/2000/svg" xmlns:xlink="http://www.w3.org/1999/xlink" x="0px" y="0px"
	 width="100%" height="100%" viewBox="0 0 136 20.997" enable-background="new 0 0 136 20.997" xml:space="preserve">
<g>
	<path fill="#454545" d="M10.499,16.542c2.198,0,4.049-1.185,5.09-2.862l3.499,2.862c-1.909,2.69-5.061,4.454-8.589,4.454
		C4.714,20.997,0,16.283,0,10.498C0,4.714,4.714,0,10.499,0c3.528,0,6.681,1.764,8.589,4.454l-3.499,2.863
		c-1.042-1.677-2.893-2.863-5.09-2.863c-3.326,0-5.842,2.748-5.842,6.044S7.172,16.542,10.499,16.542z"/>
	<path fill="#454545" d="M22.846,0c1.446,0,2.603,1.157,2.603,2.603c0,0.636-0.202,1.215-0.578,1.648h-4.049
		c-0.375-0.433-0.578-1.012-0.578-1.648C20.243,1.157,21.4,0,22.846,0z M20.647,20.766V6.305h4.396v14.46H20.647z"/>
	<path fill="#454545" d="M28.658,16.312v-6.189h-1.88l-0.955-3.817h2.834V4.137l4.367-2.169v4.338h4.569l-0.954,3.817h-3.615v4.945
		c0,1.216,0.492,1.707,1.677,1.707h2.372v3.992h-3.991C30.364,20.766,28.658,19.059,28.658,16.312z"/>
	<path fill="#454545" d="M46.211,10.354c-0.896,0-1.937,0.347-2.632,0.955v9.457h-4.367V6.306h4.367v1.272
		c0.81-1.012,1.88-1.504,3.297-1.504c0.463,0,1.013,0.058,1.562,0.231v4.541C47.773,10.498,46.964,10.354,46.211,10.354z"/>
	<path fill="#454545" d="M59.456,19.695c-0.868,0.81-2.227,1.302-3.441,1.302c-3.905,0-6.189-2.69-6.189-6.623V6.305h4.367v7.288
		c0,1.968,0.809,3.413,2.545,3.413c1.07,0,2.141-0.521,2.718-1.475V6.305h4.367v14.46h-4.367V19.695z"/>
	<path fill="#454545" d="M70.936,20.997c-2.517,0-4.568-0.896-5.812-3.065l3.326-2.257c0.578,1.042,1.359,1.765,2.66,1.765
		c0.607,0,1.129-0.145,1.129-0.664c0-0.549-0.405-0.724-1.822-1.273l-0.752-0.29c-2.516-0.983-3.817-2.603-3.817-4.656
		c0-2.661,2.198-4.483,4.973-4.483c1.852,0,3.472,0.694,4.57,2.285l-2.486,2.458c-0.551-0.781-1.187-1.301-2.084-1.301
		c-0.577,0-1.041,0.202-1.041,0.665c0,0.578,0.464,0.752,1.91,1.3l0.606,0.232c2.748,1.041,3.875,2.544,3.875,4.686
		C76.17,19.348,73.887,20.997,70.936,20.997z"/>
	<path fill="#454545" d="M104.568,0v20.766h-4.627V10.701l-5.611,5.611l-5.611-5.611v10.064h-4.627V0L94.33,10.267L104.568,0z"/>
	<path fill="#454545" d="M109.829,0c1.446,0,2.603,1.157,2.603,2.603c0,0.636-0.201,1.215-0.578,1.648h-4.049
		c-0.375-0.433-0.578-1.012-0.578-1.648C107.227,1.157,108.383,0,109.829,0z M107.631,20.766V6.305h4.396v14.46H107.631z"/>
	<path fill="#454545" d="M119.141,20.997c-2.516,0-4.57-0.896-5.812-3.065l3.326-2.257c0.578,1.042,1.359,1.765,2.66,1.765
		c0.607,0,1.127-0.145,1.127-0.664c0-0.549-0.403-0.724-1.82-1.273l-0.752-0.29c-2.516-0.983-3.817-2.603-3.817-4.656
		c0-2.661,2.197-4.483,4.974-4.483c1.853,0,3.472,0.694,4.57,2.285l-2.486,2.458c-0.549-0.781-1.187-1.301-2.084-1.301
		c-0.577,0-1.039,0.202-1.039,0.665c0,0.578,0.462,0.752,1.908,1.3l0.607,0.232c2.748,1.041,3.875,2.544,3.875,4.686
		C124.376,19.348,122.091,20.997,119.141,20.997z"/>
	<path fill="#454545" d="M127.064,16.312v-6.189h-1.881l-0.953-3.817h2.834V4.137l4.367-2.169v4.338H136l-0.954,3.817h-3.614v4.945
		c0,1.216,0.491,1.707,1.676,1.707h2.373v3.992h-3.992C128.77,20.766,127.064,19.059,127.064,16.312z"/>
</g>
</svg>
