<?xml version="1.0" encoding="utf-8"?>
<!-- Generator: Adobe Illustrator 16.0.0, SVG Export Plug-In . SVG Version: 6.00 Build 0)  -->
<!DOCTYPE svg PUBLIC "-//W3C//DTD SVG 1.1//EN" "http://www.w3.org/Graphics/SVG/1.1/DTD/svg11.dtd">
<?xml-stylesheet type="text/css" href="/styles/logo.css" ?>
<svg version="1.1" id="Layer_1" xmlns="http://www.w3.org/2000/svg" xmlns:xlink="http://www.w3.org/1999/xlink" x="0px" y="0px"
	 width="100%" height="100%" viewBox="0 0 738.61 475.677" enable-background="new 0 0 738.61 475.677"
	 xml:space="preserve" class="logo">
<path class="logo-mark" d="M722.285,300.139l-74.131,11.729l-94.909-259.99l-18.94-51.88l-20.48,50.93l-87,216.31l-92.149-101.38l-16.3-17.93
	l-8.56,21.55l-71.33,179.71l88.12-144.41l94.58,97.919l14.05,14.53l9.09-18.439l86.971-176.32l80.96,195.08l-504.13,79.78
	l140.19-286.431l40.82,34.41l-37.54-57.52l-7.25-11.11l-7.79,12.72l-202.58,330.8l-33.98,55.48l64.07-14.09l557.13-122.5
	l29.92,72.09l12.181,29.36l14.22-26.99l53.29-101.17l7.81-14.82L722.285,300.139z M669.625,370.669l-14.28-39.09l49.64-10.921
	L669.625,370.669z"/>
</svg>
