<?xml version="1.0" encoding="utf-8"?>
<!-- Generator: Adobe Illustrator 16.0.0, SVG Export Plug-In . SVG Version: 6.00 Build 0)  -->
<!DOCTYPE svg PUBLIC "-//W3C//DTD SVG 1.1//EN" "http://www.w3.org/Graphics/SVG/1.1/DTD/svg11.dtd">
<svg version="1.1" id="Layer_1" xmlns="http://www.w3.org/2000/svg" xmlns:xlink="http://www.w3.org/1999/xlink" x="0px" y="0px"
	 width="1280px" height="800px" viewBox="0 0 1280 800" enable-background="new 0 0 1280 800" xml:space="preserve">
<g>
	<path fill="#444444" d="M44.499,55.542c2.198,0,4.049-1.185,5.09-2.863l3.499,2.863c-1.909,2.69-5.061,4.454-8.589,4.454
		C38.714,59.997,34,55.283,34,49.498C34,43.714,38.714,39,44.499,39c3.528,0,6.681,1.764,8.589,4.454l-3.499,2.863
		c-1.042-1.677-2.893-2.863-5.09-2.863c-3.326,0-5.842,2.748-5.842,6.044S41.172,55.542,44.499,55.542z"/>
	<path fill="#444444" d="M56.846,39c1.446,0,2.603,1.157,2.603,2.603c0,0.636-0.202,1.215-0.578,1.648h-4.049
		c-0.375-0.433-0.578-1.012-0.578-1.648C54.243,40.157,55.4,39,56.846,39z M54.647,59.765v-14.46h4.396v14.46H54.647z"/>
	<path fill="#444444" d="M62.658,55.312v-6.189h-1.88l-0.955-3.817h2.834v-2.169l4.367-2.169v4.338h4.569l-0.954,3.817h-3.615v4.946
		c0,1.215,0.492,1.707,1.677,1.707h2.372v3.991h-3.991C64.364,59.765,62.658,58.059,62.658,55.312z"/>
	<path fill="#444444" d="M80.211,49.354c-0.896,0-1.937,0.347-2.632,0.955v9.457h-4.367v-14.46h4.367v1.272
		c0.81-1.012,1.88-1.504,3.297-1.504c0.463,0,1.013,0.058,1.562,0.231v4.541C81.773,49.498,80.964,49.354,80.211,49.354z"/>
	<path fill="#444444" d="M93.456,58.695c-0.868,0.81-2.227,1.302-3.441,1.302c-3.905,0-6.189-2.69-6.189-6.623v-8.069h4.367v7.288
		c0,1.967,0.809,3.413,2.545,3.413c1.07,0,2.141-0.521,2.718-1.475v-9.226h4.367v14.46h-4.367V58.695z"/>
	<path fill="#444444" d="M104.936,59.997c-2.517,0-4.569-0.896-5.813-3.066l3.326-2.256c0.579,1.042,1.359,1.765,2.661,1.765
		c0.607,0,1.128-0.145,1.128-0.665c0-0.549-0.405-0.723-1.822-1.273l-0.752-0.29c-2.516-0.983-3.817-2.602-3.817-4.656
		c0-2.661,2.198-4.483,4.974-4.483c1.851,0,3.471,0.694,4.57,2.285l-2.487,2.458c-0.55-0.781-1.186-1.301-2.083-1.301
		c-0.578,0-1.041,0.202-1.041,0.665c0,0.578,0.463,0.752,1.909,1.301l0.607,0.232c2.748,1.041,3.875,2.544,3.875,4.685
		C110.17,58.348,107.886,59.997,104.936,59.997z"/>
	<path fill="#444444" d="M138.568,39v20.765h-4.627V49.701l-5.611,5.611l-5.611-5.611v10.064h-4.627V39l10.238,10.267L138.568,39z"
		/>
	<path fill="#444444" d="M143.829,39c1.446,0,2.603,1.157,2.603,2.603c0,0.636-0.202,1.215-0.578,1.648h-4.049
		c-0.375-0.433-0.578-1.012-0.578-1.648C141.226,40.157,142.383,39,143.829,39z M141.631,59.765v-14.46h4.396v14.46H141.631z"/>
	<path fill="#444444" d="M153.141,59.997c-2.516,0-4.57-0.896-5.813-3.066l3.326-2.256c0.578,1.042,1.359,1.765,2.661,1.765
		c0.607,0,1.127-0.145,1.127-0.665c0-0.549-0.404-0.723-1.821-1.273l-0.752-0.29c-2.516-0.983-3.817-2.602-3.817-4.656
		c0-2.661,2.197-4.483,4.974-4.483c1.852,0,3.471,0.694,4.57,2.285l-2.487,2.458c-0.549-0.781-1.186-1.301-2.083-1.301
		c-0.578,0-1.04,0.202-1.04,0.665c0,0.578,0.462,0.752,1.908,1.301l0.608,0.232c2.748,1.041,3.875,2.544,3.875,4.685
		C158.376,58.348,156.091,59.997,153.141,59.997z"/>
	<path fill="#444444" d="M161.064,55.312v-6.189h-1.88l-0.954-3.817h2.834v-2.169l4.367-2.169v4.338H170l-0.954,3.817h-3.615v4.946
		c0,1.215,0.492,1.707,1.677,1.707h2.372v3.991h-3.991C162.77,59.765,161.064,58.059,161.064,55.312z"/>
</g>
<polygon fill="#444444" points="95.023,208.466 108.505,163.373 110.058,158.177 114.155,162.138 143.625,190.637 137.519,191.818 
	161.364,132.996 166.632,120 171.515,133.202 204.318,221.898 197.455,221.312 213.675,196.288 216.636,200.574 47.554,236.807 
	30,240.568 38.814,225.163 85.992,142.699 88.048,139.104 90.356,141.837 102.339,156.023 86.332,146.45 91.467,145.436 
	53.371,232.439 44.631,220.795 215.609,194.951 221,194.137 218.571,199.238 205.695,226.276 200.372,237.455 195.354,225.392 
	159.032,138.068 173.64,138.364 144.438,194.843 141.99,199.578 138.333,196.024 108.931,167.456 115.47,166.027 "/>
<g>
	<polygon fill-rule="evenodd" clip-rule="evenodd" fill="#7D7D7D" points="55.46,303 74.94,322.471 73.48,323.93 54,304.459 
		34.46,324 33,322.531 52.54,303 33.06,283.529 34.52,282.07 54,301.541 73.54,282 75,283.47 	"/>
</g>
</svg>
